<svg xmlns="http://www.w3.org/2000/svg" xmlns:xlink="http://www.w3.org/1999/xlink" width="750.925" height="552.07" viewBox="0 0 750.925 552.07"><defs><clipPath id="a"><rect width="750.925" height="552.07" fill="none"/></clipPath><clipPath id="c"><rect width="155.295" height="304.239" fill="none"/></clipPath><clipPath id="d"><path d="M532.7,145.228c-2.313,11.25-3.259,23.447-9.883,33.12s-20.187,14.72-29.124,23.342a58.88,58.88,0,0,0-17.348,49.943c1.472,10.3,7.465,20.713,5.362,31.227-2.523,12.2-17.664,16.087-25.97,23.657-13.879,12.722-19.346,32.279-16.3,50.573,8.517,41.321,54.148,66.134,93.787,54.043a2.1,2.1,0,0,0,1.682,0c20.5-9.042,37.641-27.022,39.323-50.258.841-11.776-2.418-23.342-3.575-35.012-1.577-15.035,3.47-25.444,10.514-38.272,10.619-19.241,16.3-42.267,10.3-63.821-1.682-5.783-4.521-11.25-6.2-17.138a52.362,52.362,0,0,1-.526-20.818c.841-6.309,3.575-12.2,4.731-18.4a76.118,76.118,0,0,0,1.472-16.3c-.315-15.456-6.1-36.484-23.342-40.585a23.131,23.131,0,0,0-5.362-.631c-17.033,0-26.5,20.5-29.44,35.223" transform="translate(-438.621 -109.9)" fill="none"/></clipPath><linearGradient id="e" x1="-1.234" y1="0.959" x2="-1.231" y2="0.959" gradientUnits="objectBoundingBox"><stop offset="0" stop-color="#fdda42"/><stop offset="1" stop-color="#e5a003"/></linearGradient><clipPath id="g"><rect width="14.51" height="14.888" fill="none"/></clipPath><clipPath id="i"><path d="M288.08,161.7h0a3.68,3.68,0,0,0-3.68,3.68v45.106a8.832,8.832,0,0,0,8.832,8.832h10.2a8.832,8.832,0,0,0,8.832-8.832V165.38a3.68,3.68,0,0,0-3.575-3.68Z" transform="translate(-284.4 -161.7)" fill="none"/></clipPath><clipPath id="k"><path d="M309.265,151.419a27.021,27.021,0,0,1-21.344.526c-5.047-2.313-7.57-2.523-8.517-.421s4.731,14.194,15.456,15.561a26.811,26.811,0,0,0,8.306-.21c10.724-2,15.666-13.774,14.825-16.4a2,2,0,0,0-2.1-1.472c-1.472,0-3.575.841-6.414,2.418" transform="translate(-279.303 -148.993)" fill="none"/></clipPath><clipPath id="m"><path d="M400.1,153.5l4.626,14.089h22.921l4.1-14.089Z" transform="translate(-400.1 -153.5)" fill="none"/></clipPath><linearGradient id="n" x1="-13.292" y1="27.75" x2="-13.259" y2="27.75" xlink:href="#e"/><clipPath id="p"><rect width="14.404" height="14.815" fill="none"/></clipPath><clipPath id="q"><rect width="14.51" height="14.899" fill="none"/></clipPath><clipPath id="r"><path d="M401.9,138.88v45.106a8.832,8.832,0,0,0,8.832,8.832h10.2a8.832,8.832,0,0,0,8.832-8.832V138.88a3.68,3.68,0,0,0-3.68-3.68h-20.5a3.68,3.68,0,0,0-3.68,3.68" transform="translate(-401.9 -135.2)" fill="none"/></clipPath><clipPath id="t"><path d="M429.043,124.92a37.536,37.536,0,0,1-25.444.526c-5.993-2.313-9.042-2.523-10.094-.421s5.573,14.194,18.295,15.561a37.745,37.745,0,0,0,9.778-.21c12.512-1.893,18.4-13.774,17.454-16.4a2.313,2.313,0,0,0-2.523-1.472c-1.682,0-4.206.841-7.57,2.418" transform="translate(-393.397 -122.473)" fill="none"/></clipPath><clipPath id="v"><rect width="13.774" height="53.286" fill="none"/></clipPath><clipPath id="w"><path d="M55.52,414.333c2,3.47,35.328,12.2,57.828,6.834s49.522-17.559,49.522-17.559l-55.83-14.72-24.078,2.1S66.034,386.365,58.674,378.9c0,0-5.152,32.068-3.049,35.433" transform="translate(-55.12 -378.9)" fill="none"/></clipPath><clipPath id="x"><rect width="121.755" height="40.396" fill="none"/></clipPath><clipPath id="z"><rect width="10.409" height="39.355" fill="none"/></clipPath><clipPath id="ab"><path d="M93.271,378.952c-10.3,3.365-15.771,13.984-15.771,13.984a83.809,83.809,0,0,0,11.355,1.787c6.1.421,119.757,26.916,125.224,26.6s17.138-7.36,17.138-13.774a201.668,201.668,0,0,0-2.839-22.29,394.081,394.081,0,0,1-42.688,3.785c-19.451.315-56.566-4.837-63.506-6.414-5.362-1.262-13.458-4.731-21.554-4.731a23.238,23.238,0,0,0-7.255,1.051" transform="translate(-77.5 -377.898)" fill="none"/></clipPath><clipPath id="ac"><rect width="150.143" height="32.52" fill="none"/></clipPath><clipPath id="ae"><rect width="45.211" height="2.25" fill="none"/></clipPath><clipPath id="af"><rect width="13.668" height="14.089" fill="none"/></clipPath><clipPath id="ag"><rect width="13.774" height="14.089" fill="none"/></clipPath><clipPath id="ah"><path d="M149.916,284.1H130.78a3.68,3.68,0,0,0-3.68,3.68v42.057a8.832,8.832,0,0,0,8.832,8.832h8.937a8.832,8.832,0,0,0,8.832-8.832V287.78h0a3.68,3.68,0,0,0-3.68-3.575h-.105" transform="translate(-127.1 -284.1)" fill="none"/></clipPath><clipPath id="aj"><path d="M153.142,274.309a31.122,31.122,0,0,1-22.5.526c-5.362-2.1-7.991-2.418-8.937-.421s4.942,13.353,16.192,14.825a31.964,31.964,0,0,0,8.727-.21c11.145-1.787,16.3-13.038,15.456-15.561a2.1,2.1,0,0,0-2.208-1.367c-1.472,0-3.785.841-6.729,2.208" transform="translate(-121.606 -272.088)" fill="none"/></clipPath><clipPath id="al"><rect width="39.113" height="29.987" fill="none"/></clipPath><clipPath id="an"><rect width="13.353" height="13.679" fill="none"/></clipPath><clipPath id="ap"><path d="M317.18,318.2a3.68,3.68,0,0,0-3.68,3.68v40.48a8.832,8.832,0,0,0,8.832,8.832h7.991a8.832,8.832,0,0,0,8.832-8.832V321.88a3.68,3.68,0,0,0-3.68-3.68Z" transform="translate(-313.5 -318.2)" fill="none"/></clipPath><clipPath id="ar"><path d="M337.452,308.708a24.814,24.814,0,0,1-19.767.526c-4.626-2.1-6.939-2.313-7.781-.421s4.311,13.038,14.194,14.3a25.128,25.128,0,0,0,7.57-.21c9.778-1.787,14.3-12.617,13.563-15.035a1.787,1.787,0,0,0-1.893-1.367c-1.367,0-3.259.736-5.888,2.1" transform="translate(-309.815 -306.494)" fill="none"/></clipPath><clipPath id="at"><rect width="7.15" height="75.471" fill="none"/></clipPath><clipPath id="au"><path d="M310,465.853A13.353,13.353,0,1,0,323.353,452.5,13.353,13.353,0,0,0,310,465.853" transform="translate(-310 -452.5)" fill="none"/></clipPath><clipPath id="aw"><rect width="13.774" height="13.668" fill="none"/></clipPath><clipPath id="ax"><rect width="11.355" height="12.617" fill="none"/></clipPath><clipPath id="ay"><path d="M540.8,297.029l-2.1,23.026c-.315,3.89,2.523,3.785,6.414,4.1l11.145,1.051a6.939,6.939,0,0,0,7.465-6.309l2.1-19.662h0a2.944,2.944,0,0,0-2.629-3.154L543.853,294.4h-.315a2.839,2.839,0,0,0-2.839,2.629" transform="translate(-538.677 -294.4)" fill="none"/></clipPath><clipPath id="ba"><path d="M525.307,287.157c-.841,2.208,1.787,12.722,9.568,15.351a18.3,18.3,0,0,0,6.2.841c8.2-.315,13.458-10.2,13.038-12.091s-2.418-1.893-6.414-.315a18.189,18.189,0,0,1-16.087-2.313c-2.1-1.682-3.785-2.629-4.837-2.629a1.472,1.472,0,0,0-1.472,1.157" transform="translate(-525.157 -286)" fill="none"/></clipPath><clipPath id="bc"><path d="M435,430.371v18.295a5.467,5.467,0,0,0,5.467,5.467h20.608v-9.568H444.886a.315.315,0,0,1-.315-.315h0V430.371a4.837,4.837,0,1,0-9.568,0" transform="translate(-434.95 -424.824)" fill="none"/></clipPath><linearGradient id="bd" x1="-17.611" y1="3.673" x2="-17.571" y2="3.673" xlink:href="#e"/><clipPath id="be"><path d="M479.634,446.8a4.731,4.731,0,0,0-4.837,4.837V465.41h0a.315.315,0,0,1-.315.315H458.5v9.568H479a5.467,5.467,0,0,0,5.467-5.467V451.531h0a4.837,4.837,0,0,0-4.837-4.731h0" transform="translate(-458.5 -446.799)" fill="none"/></clipPath><linearGradient id="bf" x1="-18.563" y1="2.887" x2="-18.522" y2="2.887" xlink:href="#e"/><clipPath id="bg"><path d="M461.506,412.4a8.306,8.306,0,0,0-8.306,8.306v71.6a8.306,8.306,0,0,0,16.612,0v-71.6A8.306,8.306,0,0,0,461.506,412.4Z" transform="translate(-453.2 -412.4)" fill="none"/></clipPath><linearGradient id="bh" x1="-28.684" y1="1.343" x2="-28.62" y2="1.343" xlink:href="#e"/><clipPath id="bm"><rect width="694.148" height="12.091" fill="none"/></clipPath></defs><g transform="translate(357.1 262.535)"><g transform="translate(-357.1 -262.535)" clip-path="url(#a)"><g clip-path="url(#a)"><path d="M282.459,357.085c3.049-18.295-2.418-37.956-16.3-50.573-8.306-7.57-23.552-11.46-25.97-23.657-2.1-10.514,3.89-20.923,5.362-31.227a58.879,58.879,0,0,0-17.348-49.943c-9.042-8.516-21.975-12.827-29.124-23.342s-7.675-21.975-9.883-33.12c-3.365-16.192-14.51-39.428-34.907-34.592-17.243,4.1-23.026,25.234-23.342,40.585a76.016,76.016,0,0,0,1.472,16.3c1.262,6.2,3.89,12.091,4.731,18.4a52.36,52.36,0,0,1-.631,20.713c-1.682,5.783-4.521,11.355-6.2,17.138-5.993,21.659-.21,44.685,10.409,63.926,7.045,12.827,12.2,23.236,10.514,38.272-1.262,11.671-4.521,23.131-3.575,35.012,1.577,23.236,18.715,41.111,39.323,50.258a2.1,2.1,0,0,0,1.682,0c39.744,12.2,85.165-12.722,93.787-54.043" transform="translate(6.577 5.655)" fill="#00bfa5"/><g transform="translate(134.582 115.551)" opacity="0.5"><g clip-path="url(#c)"><path d="M282.459,357.085c3.049-18.295-2.418-37.956-16.3-50.573-8.306-7.57-23.552-11.46-25.97-23.657-2.1-10.514,3.89-20.923,5.362-31.227a58.879,58.879,0,0,0-17.348-49.943c-9.042-8.516-21.975-12.827-29.124-23.342s-7.675-21.975-9.883-33.12c-3.365-16.192-14.51-39.428-34.907-34.592-17.243,4.1-23.026,25.234-23.342,40.585a76.016,76.016,0,0,0,1.472,16.3c1.262,6.2,3.89,12.091,4.731,18.4a52.36,52.36,0,0,1-.631,20.713c-1.682,5.783-4.521,11.355-6.2,17.138-5.993,21.659-.21,44.685,10.409,63.926,7.045,12.827,12.2,23.236,10.514,38.272-1.262,11.671-4.521,23.131-3.575,35.012,1.577,23.236,18.715,41.111,39.323,50.258a2.1,2.1,0,0,0,1.682,0c39.744,12.2,85.165-12.722,93.787-54.043" transform="translate(-128.005 -109.896)" fill="#00bfa5"/></g></g><path d="M233.411,435.942q-9.147-34.592-18.19-69.183a230.157,230.157,0,0,0,22.4-60.246c.631-2.734-3.785-3.365-4.311-.631a224.793,224.793,0,0,1-19.767,54.674l-15.246-58.564.421-.526a270.634,270.634,0,0,0,23.972-62.034c.736-2.734-3.68-3.259-4.311-.631a265.8,265.8,0,0,1-21.554,56.987L182.628,240.8a293.137,293.137,0,0,0,16.4-43.949c.736-2.734-3.259-4.416-4-1.682a294.816,294.816,0,0,1-14.089,38.9q-7.15-27.442-14.089-54.779l.526-.736q6.834-13.774,12.407-28.073c1.051-2.629-3.049-4.311-4-1.682q-4.837,12.3-10.724,24.183l-9.358-36.695c-.631-2.734-5.047-2.1-4.311.526l12.932,50.573q-9.568-10.094-19.872-19.662c-2.1-1.893-4.837,1.577-2.734,3.47q13.143,11.881,25.024,24.919l11.46,44.58v.421q3.154,12.512,6.414,24.919A253.916,253.916,0,0,1,141.1,228.6c-1.893-2.1-5.362.631-3.47,2.734a258.967,258.967,0,0,0,48.681,41.216l16.4,63.506-38.377-24.919c-2.313-1.577-5.152,1.893-2.734,3.47l42.688,27.758q12.407,47.629,24.919,95.259c.946,2.734,4.942,1.051,4.206-1.577" transform="translate(7.049 6.917)" fill="#00bfa5" style="mix-blend-mode:multiply;isolation:isolate"/><path d="M15.768,285.106c4.521,6.519,10.514,12.091,14.615,18.82s8.517,15.982,9.568,24.393.421,15.246,1.367,22.921C45,379.1,63.082,402.97,84.846,419.9c14.51,11.355,25.655,20.923,31.122,39.008,4.311,14.089,6.2,29.019,13.143,42.162a68.973,68.973,0,0,0,35.853,31.753h60.246c39.639-15.982,66.66-59.09,57.828-102.724-5.573-22.606-21.449-42.688-43.844-50.468-13.353-4.626-32.7-1.682-41.741-14.51-7.781-11.04-5.888-26.18-9.253-38.692a73.915,73.915,0,0,0-44.9-49.1c-14.72-5.467-31.753-4-45.211-12.512s-19.662-21.554-27.758-33.435C58.561,214.24,34.168,193,13.034,208.668-4.945,221.916-1.16,249.252,6.095,267.021a96.417,96.417,0,0,0,9.673,18.084Z" transform="translate(0.003 10.449)" fill="#00bfa5"/><path d="M62.682,291.945c-10.724-4.626-21.659-8.937-32.7-12.827-3.365-1.157-4.837,4.1-1.472,5.362q20.818,7.36,41.005,16.507l35.223,46.052.421.421,19.767,25.655a319.737,319.737,0,0,1-68.973-21.87c-3.259-1.472-5.783,3.47-2.629,4.837a325,325,0,0,0,76.649,23.552l50.468,65.293-56.672-9.883c-3.47-.631-4.942,4.731-1.472,5.257l63.19,11.04,61.929,79.908h6.939l-44.37-56.987a289.562,289.562,0,0,0-3.89-80.854c-.631-3.47-5.993-2-5.362,1.472a283.465,283.465,0,0,1,4.311,72.969l-46.578-60.457a2.418,2.418,0,0,0,.21-.841,340.029,340.029,0,0,0-3.049-83.588c-.526-3.47-5.888-2-5.362,1.472a332.776,332.776,0,0,1,3.259,76.543L109.89,344.411a364.312,364.312,0,0,0-2.839-58.88c-.421-3.47-5.993-3.575-5.467,0a367.571,367.571,0,0,1,3.049,51.94L61.315,281.22a2.944,2.944,0,0,0,.315-1.051q1.157-19.241.526-38.587c-.105-3.575-5.573-3.575-5.467,0,.315,11.04.21,22.185-.21,33.225L27.459,236.955c-2.1-2.734-6.939,0-4.731,2.734l40.059,52.256" transform="translate(1.14 12.126)" fill="#00bfa5" style="mix-blend-mode:multiply;isolation:isolate"/></g><g transform="translate(461.175 115.551)" clip-path="url(#d)"><path d="M365.1,328.255,548.573,578.388,676.11,219.433,492.637-30.7Z" transform="translate(-442.401 -117.13)" fill="url(#e)"/></g><g clip-path="url(#a)"><path d="M439.34,357.084c-3.049-18.295,2.418-37.956,16.3-50.573,8.306-7.57,23.552-11.46,25.97-23.657,2.1-10.514-3.89-20.923-5.362-31.227a58.88,58.88,0,0,1,17.348-49.942c9.042-8.517,21.975-12.827,29.124-23.342s7.675-21.975,9.883-33.12c3.259-16.192,14.4-39.323,34.8-34.592,17.243,4.1,23.026,25.234,23.342,40.585a76.016,76.016,0,0,1-1.472,16.3c-1.262,6.2-3.89,12.091-4.731,18.4a52.362,52.362,0,0,0,.631,20.818c1.682,5.783,4.521,11.355,6.2,17.138,5.993,21.554.21,44.58-10.3,63.821-7.044,12.827-12.2,23.236-10.514,38.272,1.262,11.671,4.521,23.131,3.575,35.012-1.682,23.236-18.82,41.111-39.323,50.258a2.1,2.1,0,0,1-1.682,0c-39.639,12.091-85.165-12.722-93.682-54.043" transform="translate(22.549 5.657)" fill="#00bfa5"/><path d="M485.709,435.947q9.147-34.592,18.19-69.183a230.155,230.155,0,0,1-22.4-60.246c-.631-2.734,3.785-3.365,4.311-.631a224.69,224.69,0,0,0,19.767,54.674L520.826,302l-.421-.526a270.632,270.632,0,0,1-23.972-62.034c-.631-2.734,3.68-3.259,4.311-.631A265.792,265.792,0,0,0,522.3,295.792L536.492,240.8a293.04,293.04,0,0,1-16.3-44.055c-.736-2.734,3.259-4.416,4-1.682a294.93,294.93,0,0,0,14.089,38.9l13.879-54.779-.526-.736q-6.834-13.774-12.3-28.073c-1.051-2.629,3.049-4.311,4-1.682q4.837,12.3,10.619,24.183l9.358-36.695c.631-2.734,5.047-2.1,4.311.526l-12.827,50.678q9.568-10.094,19.872-19.662c2.1-1.893,4.837,1.577,2.734,3.47q-13.038,11.881-24.919,24.919L541.013,240.7v.421L534.6,266.037a253.921,253.921,0,0,0,43.424-37.431c1.893-2.1,5.362.631,3.47,2.734a258.966,258.966,0,0,1-48.576,41.216l-16.4,63.506L555,311.038c2.313-1.577,5.152,1.893,2.734,3.47l-42.688,27.758-25.129,95.259c-.736,2.734-4.731,1.051-4.1-1.682" transform="translate(24.756 6.912)" fill="#00bfa5" style="mix-blend-mode:multiply;isolation:isolate"/><path d="M712.353,291.211c-4.521,6.519-10.514,12.091-14.615,18.82s-8.516,15.982-9.673,24.288-.421,15.246-1.367,22.921c-3.68,27.863-21.764,51.73-43.529,68.658-14.51,11.355-25.655,20.923-31.122,39.008-4.311,14.089-6.2,29.019-13.143,42.162a68.973,68.973,0,0,1-35.853,31.753H502.91c-39.639-15.982-66.66-59.09-57.828-102.724,5.573-22.606,21.449-42.688,43.844-50.468,13.353-4.626,32.7-1.682,41.741-14.51,7.781-11.04,5.888-26.18,9.253-38.692a73.915,73.915,0,0,1,44.9-49.1c14.72-5.467,31.753-4,45.211-12.512s19.662-21.554,27.758-33.435c11.776-17.138,36.169-38.377,57.3-22.711,18.084,13.248,14.3,40.585,7.044,58.459a96.414,96.414,0,0,1-9.673,18.084" transform="translate(22.8 10.757)" fill="#00bfa5"/><path d="M662.869,298.045c10.725-4.626,21.659-8.937,32.7-12.827,3.365-1.157,4.837,4.1,1.472,5.362q-20.818,7.36-41.005,16.507l-35.328,45.947-.315.421-19.767,25.655A319.631,319.631,0,0,0,669.6,357.24c3.259-1.472,5.783,3.47,2.629,4.837a324.993,324.993,0,0,1-76.649,23.552L545.11,450.921l56.777-9.778c3.47-.631,4.942,4.731,1.472,5.257l-63.19,11.04-61.929,79.908H471.3l44.37-56.987a289.559,289.559,0,0,1,3.89-80.854c.631-3.47,5.993-2,5.362,1.472a283.467,283.467,0,0,0-4.311,72.969L567.19,413.7a3.157,3.157,0,0,1-.21-.841,341.082,341.082,0,0,1,3.049-83.588c.526-3.47,5.888-2,5.362,1.472a332.773,332.773,0,0,0-3.365,76.438l43.529-56.566a364.2,364.2,0,0,1,2.839-58.879c.421-3.47,5.993-3.575,5.467,0a367.569,367.569,0,0,0-3.049,51.94l43.319-56.356a2.944,2.944,0,0,1-.315-1.051q-1.157-19.241-.526-38.587c.105-3.575,5.573-3.575,5.467,0-.315,11.04-.21,22.185.21,33.225l29.019-37.851c2.1-2.734,6.939,0,4.731,2.734l-39.849,52.256" transform="translate(24.235 12.44)" fill="#00bfa5" style="mix-blend-mode:multiply;isolation:isolate"/><path d="M257.8,189.1l8.622,2.629,10.619,5.362-11.25-4.626Z" transform="translate(13.256 9.724)" fill="#dba6a5"/><path d="M320.8,198.824l10.3-10.094s50.679-14.51,82.537-21.659,35.853-1.157,35.853-1.157l14.4,25.444s-73.074,21.554-79.067,21.028-38.587,14.089-38.587,14.089Z" transform="translate(16.496 8.411)" fill="#259aff"/><path d="M412.238,532.334l4.837-161.814h4.206l5.362,161.814h41.111L479,313.007,358.3,296.5v55.3l11.566,180.529Z" transform="translate(18.424 15.246)" fill="#00307c"/><path d="M253.176,533.131h42.057L300.174,369h4.206l5.467,164.127h40.69l8.306-181.9-6.624-45.842L254.648,281,241.4,350.289l1.262,20.187Z" transform="translate(12.413 14.449)" fill="#1a237e"/><path d="M483.361,349.967H353.3l6.939-184.63,58.144-8.937,62.665,8.937-12.091,43.108Z" transform="translate(18.167 8.042)" fill="#1a237e"/><path d="M337.926,115.568s18.926-10.094,21.554,4.311-5.993,28.6-21.344,20.818-.21-25.024-.21-25.024" transform="translate(17.034 5.766)" fill="#edb6b3"/><path d="M347.7,136.777a1.577,1.577,0,1,0,1.577-1.577,1.577,1.577,0,0,0-1.577,1.577" transform="translate(17.879 6.952)" fill="#003aa5"/><g transform="translate(360.427 124.278)" opacity="0.7"><g clip-path="url(#g)"><path d="M342.9,126.929c1.262-4.626,2.839-7.36,4.626-8.2a7.675,7.675,0,0,1,9.673,3.47.946.946,0,0,1-.315,1.262h0a.841.841,0,0,1-1.157-.315h0a7.255,7.255,0,0,0-4.521-3.154c2.734,2.839,5.678,8.1,1.787,12.827a.841.841,0,0,1-.631.315l-.526-.21a.946.946,0,0,1-.105-1.262c4.311-5.362-2.418-11.04-2.734-11.355l-.526.21c-.526.21-2.1,1.472-3.68,7.045a.841.841,0,0,1-.841.631h-.421a.946.946,0,0,1-.631-1.157h0Z" transform="translate(-342.797 -118.202)" fill="#edb6b3"/></g></g><path d="M409.377,158.2l-62.244,8.517L256.5,192.161l17.664,28.388,67.817-12.3s64.873,6.729,70.025,5.888l-5.678-5.047Z" transform="translate(13.19 8.135)" fill="#1a237e"/><path d="M258.877,115.568s-18.926-10.094-21.554,4.311,5.993,28.6,21.344,20.818.21-25.024.21-25.024" transform="translate(12.179 5.766)" fill="#edb6b3"/><path d="M247.854,136.777a1.577,1.577,0,1,1-1.577-1.577,1.577,1.577,0,0,1,1.577,1.577" transform="translate(12.583 6.952)" fill="#003aa5"/><g transform="translate(250.974 124.278)" opacity="0.7"><g clip-path="url(#g)"><path d="M253.105,126.929c-1.262-4.626-2.839-7.36-4.626-8.2a7.675,7.675,0,0,0-9.673,3.47.946.946,0,0,0,.315,1.262h0a.841.841,0,0,0,1.157-.315h0a7.255,7.255,0,0,1,4.521-3.154c-2.734,2.839-5.678,8.1-1.893,12.827a.841.841,0,0,0,.631.315l.526-.21a.946.946,0,0,0,.105-1.262c-4.311-5.362,2.418-11.04,2.734-11.355l.526.21c.526.21,2.1,1.472,3.68,7.045a.946.946,0,0,0,.841.631h.21a.946.946,0,0,0,.736-1.051v-.21Z" transform="translate(-238.701 -118.202)" fill="#edb6b3"/></g></g><path d="M298.389,161.7a13.458,13.458,0,0,0-13.984,12.827v56.566H284.3v-.21a13.984,13.984,0,0,0,27.863,0h0V188.407h.105V174.528A13.458,13.458,0,0,0,298.389,161.7" transform="translate(14.619 8.314)" fill="#edb6b3"/></g><g transform="translate(299.024 170.015)" clip-path="url(#i)"><path d="M364.794,64.705H239.885s-5.467,72.653,2.944,91.894c4.626,10.409,19.872,21.134,34.487,29.86a49,49,0,0,0,50.994-.21c14.194-8.937,29.124-19.451,33.646-29.965,8.306-19.136,2.839-91.684,2.839-91.684" transform="translate(-286.779 -166.693)" fill="#edb6b3"/></g><g clip-path="url(#a)"><path d="M351.307,99.593A25.024,25.024,0,0,0,326.178,75.2H274.553A25.655,25.655,0,0,0,249,100.014c-.526,19.662,2,45.421,5.888,55.2s13.563,18.4,25.129,26.18a36.274,36.274,0,0,0,40.585-.105c11.355-7.781,20.923-16.928,24.6-25.97s6.624-35.959,6.1-55.62" transform="translate(12.8 3.867)" fill="#edb6b3"/></g><g transform="translate(293.665 156.654)" clip-path="url(#k)"><path d="M317.782,150.574c-.736-2.418-3.575-1.787-8.517.946a27.022,27.022,0,0,1-21.344.526c-5.047-2.313-7.57-2.523-8.517-.421s4.731,14.194,15.456,15.561a26.811,26.811,0,0,0,8.306-.21c10.724-2,15.666-13.774,14.825-16.4" transform="translate(-279.303 -148.989)" fill="#7f3322"/><path d="M283.8,148.946s.21,8.411,13.458,8.727S314.4,153.783,314.4,148Z" transform="translate(-279.072 -149.044)" fill="#fff"/><path d="M288.4,164.846s9.147-6.414,23.131-.421l-10.83,8.306Z" transform="translate(-278.835 -148.331)" fill="#edb6b3"/><path d="M288.4,164.846s9.147-6.414,23.131-.421l-10.83,8.306Z" transform="translate(-278.835 -148.331)" fill="#edb6b3"/></g><g clip-path="url(#a)"><path d="M288.673,130.841l-.315,1.577a16.269,16.269,0,0,1-.315,1.787,7.466,7.466,0,0,0,0,2.1c0,.421,1.051,1.051,1.787,1.577l2.629,1.472a13.038,13.038,0,0,0,6.1,1.472l1.577-.21,1.577-.421,2.944-1.262,2.629-1.472,1.051-.841.315-.421v-.526a24.292,24.292,0,0,0,0-4.1,6.935,6.935,0,0,0-.105-1.577l.421,1.577.421,1.787a14.4,14.4,0,0,1,.315,2.418,4.524,4.524,0,0,1,0,.736,2.1,2.1,0,0,1-.421.841l-1.051,1.157a17.031,17.031,0,0,1-2.629,1.893,20.081,20.081,0,0,1-3.154,1.472l-1.787.526-1.787.315a12.827,12.827,0,0,1-7.045-1.787,18.818,18.818,0,0,1-2.629-1.787l-1.157-1.051-.526-.526a1.682,1.682,0,0,1-.315-.841,6.2,6.2,0,0,1,.315-2.523l.631-1.787.736-1.577" transform="translate(14.767 6.685)" fill="#edb6b3"/><path d="M260,145.011h.21a.118.118,0,1,0-.105-.21H260" transform="translate(13.369 7.445)" fill="#3a2719"/><path d="M280,117.552a5.152,5.152,0,1,1-5.152-5.152h0A5.152,5.152,0,0,1,280,117.552" transform="translate(13.868 5.78)" fill="#153158"/><path d="M326.2,117.552a5.152,5.152,0,1,1-5.152-5.152,5.152,5.152,0,0,1,5.152,5.152" transform="translate(16.244 5.78)" fill="#153158"/><path d="M261.7,107.578A26.6,26.6,0,0,1,277.156,97.8" transform="translate(13.457 5.029)" fill="none" stroke="#153158" stroke-linecap="round" stroke-linejoin="round" stroke-width="2"/><path d="M334.461,107.578A26.6,26.6,0,0,0,318.9,97.8" transform="translate(16.398 5.029)" fill="none" stroke="#153158" stroke-linecap="round" stroke-linejoin="round" stroke-width="2"/><path d="M348.4,81.945c-7.15,6.1-16.192,9.253-25.129,11.986-16.718,5.257-34.382,9.358-51.625,6.624a53.2,53.2,0,0,1-26.286-11.46A37.746,37.746,0,0,1,231.8,64.176c.21,3.47,4.942,4.521,8.411,4.416,28.283-.946,56.461-11.776,84.324-6.624,9.988,1.893,18.19,6.729,22.29,15.982" transform="translate(11.919 3.115)" fill="#003aa5"/><path d="M346.549,80.071c-15.666,13.879-44.16,19.451-64.662,18.715s-43.634-11.776-47-35.223L229,65.246c1.682,4.837,5.257,6.2,10.2,6.519,10.619.736,22.29-2.1,32.7-4,21.87-3.68,59.826-12.827,73.179,11.46,1.367,2.523,4.942.315,3.785-2.1-8.1-16.718-26.18-19.241-43.213-18.926a235.3,235.3,0,0,0-31.437,3.68c-5.678.946-37.01,8.517-39.428,1.893A3.049,3.049,0,0,0,229,65.351c7.886,55.936,88.53,41.216,120.913,19.346a2.843,2.843,0,1,0-3.154-4.731l-.315.21Z" transform="translate(11.775 2.992)" fill="#212121"/><path d="M257.289,91.578a1.577,1.577,0,0,0-1.893-1.051h-.21a10.935,10.935,0,0,0-4.416,6.624,83.152,83.152,0,0,1,1.051-9.778c1.051-3.575-4.837-5.047-5.467-1.472a58.354,58.354,0,0,0,1.577,28.809,1.9,1.9,0,1,0,3.785-.421c2.523-14.089,6.729-19.451,5.572-22.816" transform="translate(12.611 4.311)" fill="#212121"/><path d="M332.5,84.067c1.367,11.04,13.563,18.82,13.879,29.965a69.5,69.5,0,0,0,4.416-18.084A23.236,23.236,0,0,0,345.432,78.6" transform="translate(17.098 4.042)" fill="#212121"/><path d="M330.1,84.159c.21,5.257,3.365,9.568,6.414,13.774s6.939,9.989,8.832,16.612a1.367,1.367,0,0,0,2.629-.315c0-4.1,3.47-8.306,4.521-12.2a33.015,33.015,0,0,0,.946-11.145c-.421-5.047-1.787-11.671-6.834-13.879a2.1,2.1,0,0,0-2.944,2.313c1.051,4.521,4.1,8.1,4.731,13.038s.421,16.718-2.944,21.239l2.523.631c.421-4.942-2.1-9.568-4.521-13.668a80.54,80.54,0,0,1-8.2-17.138c-.841-2.629-5.257-2.313-5.047.631Z" transform="translate(16.974 3.95)" fill="#212121"/><path d="M329.566,45.855c-11.04-2.313-22.711-.736-33.54,1.682a227.209,227.209,0,0,0-22.5,6.624c-10.83,3.68-17.559,1.577-25.97-6.624a3.575,3.575,0,0,0-5.047.105l-.526.631a23.236,23.236,0,0,0-3.68,17.769l-10.935-7.991a2.734,2.734,0,0,0-3.785,1.051l-.315.631c-1.893,11.881-3.049,24.5,4.942,34.487s19.556,12.827,30.7,14.615c31.543,4.837,60.982-9.147,89.055-21.554,2.418-1.051.315-4.521-2.1-3.575l-2.734,1.157,5.783-4.1c.105,1.893,2.839,2.944,3.785,1.051,8.306-16.087-8.411-32.8-23.131-35.853" transform="translate(11.41 2.3)" fill="#212121"/><path d="M281.3,199.2a32.594,32.594,0,0,0,36.274-2.1s4.311,40.059-11.671,41.216S281.3,199.2,281.3,199.2" transform="translate(14.465 10.135)" fill="#ededeb"/><path d="M364.435,197.722,335.31,187.629,314.6,185c0,5.678-1.367,43-13.563,48.891-11.986-5.783-14.3-42.057-14.4-48.681l-40.059,6.624.21,20.082L239,252.5l5.573,84.955s27.758,5.783,52.886,8.2c39.954,3.68,57.723-8.2,57.723-8.2l7.675-83.8Z" transform="translate(12.29 9.513)" fill="#3d5afe"/><path d="M199.563,60.544s3.47-13.774,1.682-14.4-3.154-.841-4.311,1.577l-4.942,10.83-3.47-7.57s-3.785-18.084-4.626-20.187a2.418,2.418,0,0,0-4.731.526c-.105,1.472,2.1,21.134,2.1,21.134s-7.675-22.185-9.358-23.131-4.521,0-4,3.575c.21,1.157,5.783,22.5,5.783,22.5s-6.834-13.248-8.727-14.93a2.418,2.418,0,0,0-4.1,1.577c-.21,1.682,8.2,20.608,8.2,20.608a56.148,56.148,0,0,0-6.414-6.2,2.1,2.1,0,0,0-3.154,2.313c.315,2.1,14.194,21.975,14.194,21.975l2.734,13.248,20.187-6.834a82.114,82.114,0,0,1-1.682-10.3c.315-.946,4.416-16.4,4.416-16.4" transform="translate(8.198 1.49)" fill="#edb6b3"/><path d="M197.073,82.278,196.022,76.6,169,81.016l1.682,7.886Z" transform="translate(8.69 3.939)" fill="#003aa5"/><path d="M197.073,82.278,196.022,76.6,169,81.016l1.682,7.886Z" transform="translate(8.69 3.939)" fill="none" stroke="#003aa5" stroke-miterlimit="10" stroke-width="0.25"/><path d="M195.075,197.544C181.091,163.373,169,87.355,169,87.355L198.335,80.1s19.451,66.66,29.755,87.794c4.942,10.2,18.505,27.337,26.811,32.909-5.678,23.236,1.893,40.585-10.724,60.246l.21-2.1s-36.9-31.122-49.207-61.193" transform="translate(8.69 4.119)" fill="#3d5afe"/></g><g transform="translate(420.674 161.393)" clip-path="url(#m)"><rect width="31.648" height="14.079" fill="url(#n)"/></g><g clip-path="url(#a)"><path d="M455.426,89.068s18.926-10.094,21.554,4.311-5.993,28.6-21.344,20.818-.21-25.024-.21-25.024" transform="translate(23.076 4.403)" fill="#edb6b3"/><g transform="translate(484.074 96.415)" opacity="0.7"><g clip-path="url(#p)"><path d="M460.4,100.429c1.262-4.626,2.734-7.36,4.626-8.2A7.675,7.675,0,0,1,474.7,95.7a.946.946,0,0,1-1.577.946A7.044,7.044,0,0,0,468.6,93.49c2.734,2.839,5.678,8.1,1.893,12.827l-.631.21-.526-.21a.946.946,0,0,1-.105-1.262c4.311-5.362-2.418-11.04-2.734-11.355l-.526.21c-.631.21-2.1,1.472-3.68,7.045a.841.841,0,0,1-.841.631h-.21a.946.946,0,0,1-.841-.946Z" transform="translate(-460.4 -91.702)" fill="#edb6b3"/></g></g><path d="M376.377,89.068s-18.926-10.094-21.554,4.311,5.993,28.6,21.344,20.818.21-25.024.21-25.024" transform="translate(18.221 4.403)" fill="#edb6b3"/><g transform="translate(374.411 96.415)" opacity="0.7"><g clip-path="url(#q)"><path d="M370.505,100.429c-1.262-4.626-2.734-7.36-4.626-8.2a7.675,7.675,0,0,0-9.673,3.47.946.946,0,0,0,.315,1.262.841.841,0,0,0,1.157-.21h0a7.045,7.045,0,0,1,4.521-3.154c-2.734,2.839-5.678,8.1-1.787,12.827a.841.841,0,0,0,.631.315l.526-.21a.946.946,0,0,0,.105-1.262c-4.311-5.362,2.418-11.04,2.734-11.355l.526.21c.631.21,2.1,1.472,3.68,7.045a.841.841,0,0,0,.841.631h.21a.946.946,0,0,0,.736-1.051v-.315Z" transform="translate(-356.101 -91.702)" fill="#edb6b3"/></g></g><path d="M415.884,135.2A13.458,13.458,0,0,0,401.9,148.028v16.087A13.879,13.879,0,0,0,415.779,178.1h0a13.984,13.984,0,0,0,13.879-13.984v-2.1h.105V148.028A13.458,13.458,0,0,0,415.779,135.2" transform="translate(20.666 6.952)" fill="#edb6b3"/></g><g transform="translate(422.566 142.152)" clip-path="url(#r)"><path d="M482.4,38.1H357.285s-5.467,72.653,2.944,91.894c4.626,10.409,19.977,21.134,34.487,29.86a49,49,0,0,0,50.994-.21c14.194-8.937,29.124-19.451,33.751-29.86C487.872,110.648,482.4,38.1,482.4,38.1" transform="translate(-404.284 -140.193)" fill="#edb6b3"/></g><g clip-path="url(#a)"><path d="M468.812,73.083A25.129,25.129,0,0,0,443.683,48.9H392.058A25.655,25.655,0,0,0,366.4,73.714c-.526,19.662,1.893,45.421,5.888,55.2s13.668,18.295,25.234,26.075a36.274,36.274,0,0,0,40.9-.21c11.355-7.781,20.923-16.928,24.6-25.97s6.414-35.959,5.783-55.62" transform="translate(18.837 2.515)" fill="#edb6b3"/></g><g transform="translate(413.626 128.771)" clip-path="url(#t)"><path d="M439.137,123.974c-.946-2.418-4.311-1.787-10.094.946a37.536,37.536,0,0,1-25.444.526c-5.993-2.313-9.042-2.523-10.094-.421s5.573,14.194,18.295,15.561a37.745,37.745,0,0,0,9.778-.21c12.512-1.893,18.4-13.774,17.454-16.4" transform="translate(-393.397 -122.474)" fill="#7f3322"/><path d="M398.7,122.446s.21,8.411,15.876,8.727,20.292-3.89,20.4-9.673Z" transform="translate(-393.124 -122.523)" fill="#fff"/><path d="M404.2,138.446s10.83-6.414,27.547-.421l-12.827,8.306Z" transform="translate(-392.841 -121.805)" fill="#edb6b3"/><path d="M404.2,138.446s10.83-6.414,27.547-.421l-12.827,8.306Z" transform="translate(-392.841 -121.805)" fill="#edb6b3"/></g><g clip-path="url(#a)"><path d="M406.163,104.336l-.315,1.577c-.105.526-.21,1.051-.315,1.787a6.834,6.834,0,0,0,0,2.1c.105.421,1.051,1.051,1.787,1.577l2.629,1.472a13.038,13.038,0,0,0,6.1,1.472l1.577-.21,1.577-.421,2.944-1.262,2.629-1.472,1.051-.736c.105-.21.21-.21.315-.421a1.472,1.472,0,0,0,0-.526,22.285,22.285,0,0,0,0-4.1,7.993,7.993,0,0,0-.105-1.577l.421,1.577a9.356,9.356,0,0,0,.421,1.787,12.613,12.613,0,0,1,.315,2.418,2.313,2.313,0,0,1,0,.736,1.892,1.892,0,0,1-.421.841l-1.051,1.157a18.715,18.715,0,0,1-2.629,1.893l-3.154,1.472-1.682.526-1.787.315a12.827,12.827,0,0,1-6.939-1.893,17.454,17.454,0,0,1-2.629-1.787l-1.157-1.051-.526-.526a1.787,1.787,0,0,1-.315-.841,5.889,5.889,0,0,1,.315-2.523l.631-1.787a6.2,6.2,0,0,1,.526-1.472" transform="translate(20.819 5.327)" fill="#edb6b3"/><path d="M377.5,118.411h.21a.118.118,0,1,0-.105-.21H377.5" transform="translate(19.411 6.077)" fill="#3a2719"/><path d="M397.5,91.052a5.152,5.152,0,1,1-5.152-5.152,5.152,5.152,0,0,1,5.152,5.152" transform="translate(19.91 4.417)" fill="#153158"/><path d="M443.7,91.056a5.152,5.152,0,1,1-1.472-3.68,5.152,5.152,0,0,1,1.472,3.68" transform="translate(22.286 4.413)" fill="#153158"/><path d="M379.2,81.078A26.6,26.6,0,0,1,394.761,71.3" transform="translate(19.499 3.666)" fill="none" stroke="#153158" stroke-linecap="round" stroke-linejoin="round" stroke-width="2"/><path d="M451.861,81.078A26.6,26.6,0,0,0,436.3,71.3" transform="translate(22.435 3.666)" fill="none" stroke="#153158" stroke-linecap="round" stroke-linejoin="round" stroke-width="2"/><path d="M473.72,57.823a44.685,44.685,0,0,0-6.939-18.61,40.691,40.691,0,0,0,4.626-8.2,37.22,37.22,0,0,0,2-21.134A3.47,3.47,0,0,0,467.622,8.3a42.9,42.9,0,0,1-13.668,8.727A29.65,29.65,0,0,0,458.264,4.2c.21-2.839-2.944-3.89-5.152-2.944-9.568,4.311-21.344,6.624-31.227,11.46l.631-1.577C423.357,10.4,427.142-.005,424.2.1s-4.731,5.573-12.407,7.781c-4.731,1.577-62.139,4.311-49,67.817A74.019,74.019,0,0,0,366.055,90v1.682c.315,3.154,5.257,3.259,5.047,0v-.841a3.256,3.256,0,0,1,0-.421c0-1.472,0-3.049.105-4.731a52.255,52.255,0,0,1,3.575-15.351A18.505,18.505,0,0,1,388.765,59.3c8.622-1.262,19.241,1.682,28.388,3.049,12.407,1.787,31.017-8.727,41.321-.421,5.678,7.15,6.1,19.241,7.675,28.073.526,3.049,5.257,2.208,5.362-.736.105-10.935,3.89-20.187,2.208-31.332" transform="translate(18.555 0.005)" fill="#212121"/><path d="M400.573,153.5l-9.673,6.939,9.147,24.183,16.3-7.675Z" transform="translate(20.1 7.893)" fill="#fdda42"/><path d="M430.971,153.5l9.673,6.939-7.36,24.183L415.2,176.947Z" transform="translate(21.35 7.893)" fill="#fdda42"/><path d="M450.381,339.854s-10.725,7.886-9.778,9.358,1.787,2.523,4,1.367l9.883-4.942-2,7.465s-7.991,15.456-8.517,17.454,1.893,4.311,3.68,2.313,10.935-16.612,10.935-16.612-7.465,20.5-6.834,22.29,3.259,2.734,4.942-.21c.526-.946,9.147-19.662,9.147-19.662s-2.839,13.563-2.418,15.982a2.1,2.1,0,0,0,3.89,1.262c1.157-1.051,6.2-19.767,6.2-19.767a52.254,52.254,0,0,0,1.051,8.2,1.893,1.893,0,0,0,3.68.21c.946-1.682,2.734-24.183,2.734-24.183l5.783-11.145L468.255,322.4a78.862,78.862,0,0,1-4.837,8.517c-.841.315-12.932,8.937-12.932,8.937" transform="translate(22.653 16.578)" fill="#edb6b3"/><g transform="translate(482.918 281.676)" opacity="0.3"><g clip-path="url(#v)"><path d="M459.3,321.207,470.13,267.9l2.839,25.234Z" transform="translate(-459.3 -267.9)" fill="#137cbc"/></g></g><path d="M464.27,315.2l-3.47,11.355,24.6,11.986,4.626-7.57Z" transform="translate(23.695 16.208)" fill="#fdda42"/><path d="M475.6,165.8s41.216,63.716,43.844,78.857-28.809,98.728-28.809,98.728L459.2,326.457l23.342-72.128L463.3,206.7Z" transform="translate(23.613 8.526)" fill="#1a237e"/><path d="M201.316,460.688,143.7,454.8h-.631L85.45,460.688,78.3,518.411l1.787.21H206.678l1.787-.21Z" transform="translate(4.026 23.386)" fill="#1a237e"/><path d="M201.316,460.688,143.7,454.8h-.631L85.45,460.688,78.3,518.411l1.787.21H206.678l1.787-.21Z" transform="translate(4.026 23.386)" fill="none" stroke="#003aa5" stroke-miterlimit="10" stroke-width="0.25"/><path d="M143.245,498.076c27.652-.736,65.083-7.675,65.083-7.675l-8.517-149.407c.631-6.519.736-9.883-6.1-12.091-9.463-3.049-47.629-20.5-47.629-20.5h-7.36s-36.9,17.454-46.052,20.4c-6.624,2.1-6.414,5.573-5.783,12.091L76.9,490.4s37.956,6.834,64.662,7.675Z" transform="translate(3.954 15.858)" fill="#3d5afe"/><path d="M58.674,378.9s-5.152,32.068-3.049,35.433,35.328,12.2,57.828,6.834,49.522-17.559,49.522-17.559l-55.83-14.72-24.078,2.1S66.034,386.365,58.674,378.9" transform="translate(2.834 19.483)" fill="#edb6b3"/></g><g transform="translate(57.955 398.383)" clip-path="url(#w)"><g transform="translate(-2.019 14.404)" opacity="0.3"><g clip-path="url(#x)"><path d="M92.523,392.6s24.183,9.568,24.183,12.3,1.787,10.83-63.506,8.411c0,0,49.732,30.912,96.836,15.351s12.932-22.4,12.932-22.4Z" transform="translate(-53.2 -392.6)" fill="#edb6b3"/></g></g></g><g clip-path="url(#a)"><path d="M50.3,386.526l29.23,8.727,12.2-3.47,5.888-5.573,37.22-14.4-.21-63.506s-51.2,12.3-66.24,29.65c-8.727,10.3-18.084,48.576-18.084,48.576" transform="translate(2.586 15.853)" fill="#3d5afe"/><g transform="translate(82.221 373.465)" opacity="0.5"><g clip-path="url(#z)"><path d="M78.2,392.631s4-22.29,8.727-37.431l1.682,39.323Z" transform="translate(-78.2 -355.2)" fill="#3d5afe"/></g></g><path d="M234.224,386.526l-29.23,8.727-12.2-3.47-5.888-5.573-37.01-14.4V308.3s51.309,12.3,66.24,29.65c8.727,10.3,18.084,48.576,18.084,48.576" transform="translate(7.708 15.853)" fill="#3d5afe"/><g transform="translate(202.188 373.465)" opacity="0.5"><g clip-path="url(#z)"><path d="M202.709,392.631s-4-22.29-8.727-37.431L192.3,394.523Z" transform="translate(-192.3 -355.2)" fill="#3d5afe"/></g></g><path d="M180,378.455s4.311-8.727,5.467-10.724,5.783,1.051,4.1,4.837-2.523,5.257-2.523,5.257Z" transform="translate(9.256 18.877)" fill="#e2abaa"/><path d="M156.9,393.944s25.97-19.031,27.232-19.031,19.767-.421,21.028-.21,1.367,2.313,1.051,3.259a1.472,1.472,0,0,1-1.367,1.051l-12.722.841v.21s11.566-.105,16.4.21a2,2,0,0,1,0,3.89l-14.615,1.367,17.348,1.051,1.577,4.942-42.477,6.624Z" transform="translate(8.068 19.265)" fill="#edb6b3"/><path d="M228.379,385.257a201.86,201.86,0,0,1,2.839,22.29c0,6.414-11.671,13.353-17.138,13.774s-119.126-26.18-125.224-26.6A84.016,84.016,0,0,1,77.5,392.932s5.573-10.514,15.771-13.879,21.975,2,28.914,3.575,44.055,6.729,63.506,6.414a394.068,394.068,0,0,0,42.688-3.785" transform="translate(3.985 19.435)" fill="#edb6b3"/></g><g transform="translate(81.485 397.33)" clip-path="url(#ab)"><g transform="translate(0.105 15.038)" opacity="0.25"><g clip-path="url(#ac)"><path d="M227.743,413.334s-31.543-2.944-71.5-9.883S77.6,392.2,77.6,392.2l137.316,32.489Z" transform="translate(-77.6 -392.2)" fill="#edb6b3"/></g></g></g><g clip-path="url(#a)"><g transform="translate(172.118 407.846)" opacity="0.3"><g clip-path="url(#ae)"><path d="M163.7,388h22.711l15.561.21h6.939l-1.893.421-2.1.421-2.944.421a114.816,114.816,0,0,1-15.666.736q-7.8-.137-15.561-1.051l-5.152-.736L163.7,388" transform="translate(-163.7 -387.895)" fill="#edb6b3"/></g></g><path d="M159.5,190.507c4.521-3.68,11.25-2.1,16.4.315a38.167,38.167,0,0,1,19.451,20.923,45.527,45.527,0,0,1,2.1,12.3c.315,6.2-.421,13.353-5.467,16.928a3.259,3.259,0,0,1-2.1.841c-1.472-.105-2.313-1.682-2.734-3.049-1.472-4.311-2.1-9.042-3.47-13.458-3.68-12.827-12.3-23.552-21.239-33.33" transform="translate(8.202 9.684)" fill="#212121"/><path d="M161.109,193.172c11.355-6.414,26.18,8.1,30.281,17.243a37.115,37.115,0,0,1,3.049,15.14c0,5.467-2.1,15.035-5.888,5.783s-4.311-15.14-8.832-22.5-9.463-14.4-16.192-18.4c-1.787-1.051-3.365.946-2.629,2.629,3.575,7.991,10.724,14.089,14.93,21.87s4.416,17.664,8.517,25.655c5.467,10.409,14.3,0,15.876-7.36a41.006,41.006,0,0,0-10.3-35.853c-7.886-8.2-21.028-15.982-31.858-9.253a2.944,2.944,0,0,0,2.734,5.152h.105Z" transform="translate(8.065 9.542)" fill="#212121"/><path d="M94.72,241.841c-9.147-13.038-8.411-31.543.421-44.9s24.6-20.923,40.48-21.344c8.517-.315,17.769,1.787,23.131,8.306,1.472,1.787,2.523,4.416,1.262,6.309a5.993,5.993,0,0,1-2.418,1.682c-8.727,4.1-18.4,5.362-27.758,7.465s-19.031,5.257-25.76,12.091A30.807,30.807,0,0,0,96.4,241.841" transform="translate(4.534 9.028)" fill="#212121"/><path d="M96.661,240.872a39.533,39.533,0,0,1,13.774-53.728,50.784,50.784,0,0,1,28.388-7.57c4.311.21,9.988.946,13.353,3.68,9.568,7.886-4,8.517-9.253,9.883-14.4,3.575-30.176,5.152-41.111,16.507-8.2,8.517-10.725,21.764-7.886,33.015a2.629,2.629,0,0,0,4.942-1.367c-9.147-36.274,33.751-35.643,56.251-44.16,19.031-7.15,2.1-22.185-10.514-24.5-37.536-6.729-76.228,35.538-51.73,70.34a2.119,2.119,0,0,0,3.68-2.1Z" transform="translate(4.381 8.84)" fill="#212121"/><path d="M179.015,240.359s17.874-9.568,20.4,4.1-5.678,27.022-20.292,19.662-.21-23.762-.21-23.762" transform="translate(8.874 12.192)" fill="#edb6b3"/><g transform="translate(193.041 255.285)" opacity="0.7"><g clip-path="url(#af)"><path d="M183.7,251.107c1.157-4.416,2.629-6.939,4.311-7.781a7.255,7.255,0,0,1,9.147,3.259.841.841,0,0,1-.315,1.157h0a.841.841,0,0,1-1.157-.21h0a6.624,6.624,0,0,0-4.311-3.049c2.629,2.629,5.362,7.57,1.787,12.091a.841.841,0,0,1-.631.315l-.526-.21a.841.841,0,0,1-.105-1.157h0c4.1-5.152-2.313-10.514-2.523-10.725l-.526.21c-.526.21-2.1,1.367-3.47,6.624a.841.841,0,0,1-.841.631h-.21a.841.841,0,0,1-.631-1.051v-.105Z" transform="translate(-183.596 -242.801)" fill="#edb6b3"/></g></g><path d="M104.02,240.359s-17.874-9.568-20.4,4.1,5.678,27.022,20.292,19.662.21-23.762.21-23.762" transform="translate(4.277 12.192)" fill="#edb6b3"/><g transform="translate(89.266 255.285)" opacity="0.7"><g clip-path="url(#ag)"><path d="M98.669,251.107c-1.157-4.416-2.629-6.939-4.416-7.781a7.255,7.255,0,0,0-9.147,3.259.841.841,0,0,0,.315,1.157h0a.841.841,0,0,0,1.157-.21h0a6.624,6.624,0,0,1,4.311-3.049c-2.629,2.629-5.362,7.57-1.787,12.091a.841.841,0,0,0,.631.315l.526-.21a.841.841,0,0,0,.105-1.157h0c-4.1-5.152,2.313-10.514,2.523-10.725l.526.21c.526.21,2.1,1.367,3.47,6.624a.841.841,0,0,0,.841.631h.21a.841.841,0,0,0,.736-.946v-.21Z" transform="translate(-84.895 -242.801)" fill="#edb6b3"/></g></g><path d="M153.7,296.248a13.248,13.248,0,1,0-26.5,0v14.615a13.248,13.248,0,0,0,26.5,0Z" transform="translate(6.541 14.552)" fill="#edb6b3"/></g><g transform="translate(133.636 298.709)" clip-path="url(#ah)"><path d="M203.376,192.105H84.881s-5.152,68.763,2.734,86.952c4.311,9.883,18.82,19.977,32.594,28.388a46.473,46.473,0,0,0,48.26-.21c13.458-8.411,27.652-18.4,32.068-28.283,7.991-18.19,2.839-86.953,2.839-86.953" transform="translate(-129.356 -288.836)" fill="#edb6b3"/></g><g clip-path="url(#a)"><path d="M191.739,225.226A23.762,23.762,0,0,0,167.872,202.2H119.086A24.183,24.183,0,0,0,94.9,225.647c-.526,18.61,1.893,43,5.573,52.256s12.827,17.454,23.867,24.814a34.487,34.487,0,0,0,38.587-.105c10.724-7.36,19.872-16.087,23.236-24.6s6.1-34.066,5.573-52.781" transform="translate(4.876 10.397)" fill="#edb6b3"/></g><g transform="translate(127.859 286.079)" clip-path="url(#aj)"><path d="M161.979,273.47c-.841-2.313-3.785-1.682-8.937.841a31.122,31.122,0,0,1-22.5.526c-5.362-2.1-7.991-2.418-8.937-.421s4.942,13.353,16.192,14.825a31.963,31.963,0,0,0,8.727-.21c11.145-1.787,16.3-13.038,15.456-15.561" transform="translate(-121.611 -272.09)" fill="#7f3322"/><path d="M126.3,271.946s.21,7.991,14.089,8.2,17.979-3.68,17.979-9.147Z" transform="translate(-121.365 -272.143)" fill="#fff"/><path d="M131.2,287.137s9.568-6.1,24.288-.315l-11.46,7.886Z" transform="translate(-121.113 -271.458)" fill="#edb6b3"/><path d="M131.2,287.137s9.568-6.1,24.288-.315l-11.46,7.886Z" transform="translate(-121.113 -271.458)" fill="#edb6b3"/></g><g clip-path="url(#a)"><path d="M132.268,258.241l-.315,1.472c-.105.421-.21,1.051-.315,1.682a6.623,6.623,0,0,0,0,2.1c.105.421,1.051,1.051,1.682,1.472l2.523,1.367a12.512,12.512,0,0,0,5.783,1.367l1.472-.21,1.472-.421,2.839-1.157,2.523-1.367.946-.841.315-.421v-.526a21.869,21.869,0,0,0-.105-3.89V257.4l.421,1.472.421,1.682a11.564,11.564,0,0,1,.315,2.313,2.733,2.733,0,0,1,0,.736,1.892,1.892,0,0,1-.421.736l-1.051,1.051a17.03,17.03,0,0,1-2.523,1.787l-2.944,1.472-1.682.526-1.682.315a12.3,12.3,0,0,1-6.624-1.787,18.085,18.085,0,0,1-2.523-1.682l-1.051-.946-.526-.526a1.577,1.577,0,0,1-.315-.736,5.888,5.888,0,0,1,.315-2.418l.631-1.682.526-1.472" transform="translate(6.73 13.236)" fill="#edb6b3"/><path d="M105.1,264.71a.118.118,0,1,0,.105-.21H105.1c-.105,0-.105.21,0,.21" transform="translate(5.401 13.601)" fill="#3a2719"/><path d="M119.142,237.4a4.942,4.942,0,1,1-4.942,4.942,4.942,4.942,0,0,1,4.942-4.942" transform="translate(5.872 12.207)" fill="#153158"/><path d="M163.042,237.4a4.942,4.942,0,1,1-4.942,4.942,4.942,4.942,0,0,1,4.942-4.942" transform="translate(8.13 12.207)" fill="#153158"/><path d="M106.7,232.753a25.129,25.129,0,0,1,14.72-9.253" transform="translate(5.487 11.493)" fill="none" stroke="#153158" stroke-linecap="round" stroke-linejoin="round" stroke-width="2"/><path d="M163.779,192.044c.631,1.051,0,2.418-.841,3.365a100.936,100.936,0,0,1-13.563,16.4,33.856,33.856,0,0,1-18.926,9.147,3.049,3.049,0,0,1-2.313-.421,2.839,2.839,0,0,1-.736-2.1c0-4.837,3.049-9.042,6.309-12.617A69.394,69.394,0,0,1,156.945,189.1" transform="translate(6.551 9.724)" fill="#212121"/><path d="M162.356,191.712c-1.682,6.1-8.517,12.512-12.932,16.823a38.481,38.481,0,0,1-9.042,6.729c-1.157.631-8.517,3.785-9.883,3.049-3.365-2.1,10.409-15.14,12.512-16.823,4.942-4,10.514-6.834,15.456-10.724,1.787-1.367-.21-3.68-2-3.365-10.3,2-20.082,10.094-26.5,18.084-3.049,3.785-9.673,15.456-2,18.19s18.926-6.1,23.972-10.83a89.371,89.371,0,0,0,10.409-12.3c2.418-3.259,4.626-5.257,2.944-9.147-.526-1.262-2.418-.841-2.734.315Z" transform="translate(6.397 9.635)" fill="#212121"/><path d="M150.113,196.133a159.081,159.081,0,0,1-41.426,24.708c-2.629,1.051-5.678,2-7.991.315A5.467,5.467,0,0,1,98.8,216a11.776,11.776,0,0,1,2.313-5.257,42.268,42.268,0,0,1,9.673-9.358,73.494,73.494,0,0,1,44.9-14.089" transform="translate(5.076 9.63)" fill="#212121"/><path d="M148.622,194.733a123.436,123.436,0,0,1-24.5,15.771c-3.365,1.682-9.358,5.362-12.827,5.783q-6.309,4.521-5.467-5.467a33.123,33.123,0,0,1,3.575-3.575,65.714,65.714,0,0,1,23.552-13.038c7.675-2.418,15.666-2.1,23.236-4.311a2.629,2.629,0,0,0,0-5.047c-11.355-3.154-25.339,1.577-35.643,6.414S96.262,204.3,95.1,215.446c-2.734,27.232,50.573-13.563,56.041-17.454a2.219,2.219,0,0,0-2.629-3.575h0Z" transform="translate(4.885 9.453)" fill="#212121"/><path d="M161.1,194.634a72.443,72.443,0,0,0,4,28.6c2.1,5.783,5.362,11.776,11.145,13.774a3.365,3.365,0,0,0,2.1.105,3.154,3.154,0,0,0,1.472-1.682c1.787-4,0-8.517-2.1-12.407A267.9,267.9,0,0,0,159.1,191.9" transform="translate(8.181 9.868)" fill="#212121"/><path d="M159.333,194.778a61.508,61.508,0,0,0,4.1,32.8c2.313,5.152,9.252,15.876,16.507,12.827s3.89-12.827,1.682-17.559c-5.047-11.145-11.566-23.762-19.977-32.8-2.418-2.629-6.1.736-4.731,3.68,2.839,5.888,6.834,11.355,10.2,16.928s9.358,12.827,9.778,18.505c.526,7.886-4.837,1.051-6.729-2.313a47.946,47.946,0,0,1-3.785-10.3,97.153,97.153,0,0,1-3.154-21.659,2,2,0,0,0-3.89,0Z" transform="translate(8.054 9.724)" fill="#212121"/><path d="M162.2,193.787l9.042,18.926c4.311,9.147,9.042,18.61,17.243,24.393a5.047,5.047,0,0,0,2.944,1.157,3.68,3.68,0,0,0,3.365-3.049,9.147,9.147,0,0,0-.526-4.731,54.674,54.674,0,0,0-13.774-21.975A146.253,146.253,0,0,0,160.2,192" transform="translate(8.238 9.873)" fill="#212121"/><path d="M160.548,194.452c2.523,7.36,21.659,60.141,35.959,45.316,6.624-6.834-2.839-20.608-7.15-26.286-6.939-9.253-17.454-19.767-28.388-23.972-2.944-1.157-4.416,2.839-2.734,4.731,5.573,6.624,13.668,10.83,19.767,17.138,2.313,2.313,15.982,18.295,11.986,21.028s-23.552-35.433-25.865-39.428c-1.051-1.682-4.1-.631-3.47,1.472Z" transform="translate(8.1 9.734)" fill="#212121"/><path d="M163.644,187.82a22.711,22.711,0,0,0-7.15-18.4,1.367,1.367,0,0,0-.841-.421,1.226,1.226,0,0,0-1.051,1.051,7.045,7.045,0,0,0,1.262,4.837l6.519,11.986" transform="translate(7.948 8.69)" fill="#212121"/><path d="M165.354,188.39a20.923,20.923,0,0,0-.841-12.932c-1.367-3.049-4.521-9.358-8.516-9.358-10.3,0,2.1,20.818,5.467,23.131a2.629,2.629,0,0,0,3.89-2.1,16.928,16.928,0,0,0-3.154-7.57c-.631-1.157-3.89-7.991-4.626-7.675h-3.049c4.731,2.629,7.465,11.355,7.781,16.192.105,1.682,2.734,2.313,3.154.421Z" transform="translate(7.815 8.541)" fill="#212121"/><path d="M154.663,188.269c-.315-7.255-7.57-12.3-14.51-14.194-18.295-5.152-38.167,3.365-51.625,16.718-3.785,3.785-7.36,8.517-6.624,13.879a37.641,37.641,0,0,0,18.505-10.094" transform="translate(4.207 8.873)" fill="#212121"/><path d="M156.731,188.421c1.157-17.874-24.183-20.292-36.9-18.19C103.739,172.965,78.61,186,78.4,204.718a3.68,3.68,0,0,0,3.68,3.68h.946C90.7,206.505,98.8,203.14,103,196.2c1.472-2.523-1.472-4.942-3.785-3.785-6.414,3.154-11.04,7.045-18.19,8.937l4.626,3.575c.105-13.774,21.344-24.183,32.7-27.337s29.019-1.577,34.7,11.881c.841,1.893,3.47.736,3.575-.946Z" transform="translate(4.031 8.721)" fill="#212121"/><path d="M84.8,195.513c4.521-12.512,17.243-20.4,30.071-24.183,9.358-2.839,19.556-4,28.6-.526s16.507,12.512,15.561,22.185" transform="translate(4.361 8.673)" fill="#212121"/><path d="M88.026,197.395c10.935-25.234,61.613-37.956,67.606-3.259.631,3.68,6.624,3.575,7.36,0,3.785-19.767-18.82-30.6-35.328-29.23-19.031,1.472-38.482,11.776-46.052,29.965-1.577,3.68,4.837,6.414,6.414,2.734Z" transform="translate(4.184 8.474)" fill="#212121"/><path d="M163.287,184.529l-.841.736c2.734-5.467,9.568-7.991,15.666-7.36a2.418,2.418,0,0,1,2.313,1.157c.631,1.367-1.157,2.629-2.629,3.049l-16.3,5.257" transform="translate(8.305 9.143)" fill="#212121"/><path d="M163.391,182.5h-.841l2,4.837c2.313-1.787,3.575-3.89,6.414-5.047a16.086,16.086,0,0,1,4.1-.946h2.1c1.157.21,1.367,0,.526-.526l.315-2.313c-.946,2.1-7.57,3.154-9.673,3.89a21.344,21.344,0,0,0-8.2,3.68c-1.472,1.367-.21,3.365,1.472,3.575s5.993-1.051,8.937-1.893a82.638,82.638,0,0,0,9.042-2.839c3.47-1.367,5.993-5.678,2.313-8.727-5.993-4.942-21.028.841-22.08,8.517-.421,3.47,4.521,5.152,5.467,1.472l.21-.946a2.1,2.1,0,0,0-1.472-2.629h-.631Z" transform="translate(8.201 8.966)" fill="#212121"/><path d="M104.314,228.5H130.6a6.309,6.309,0,0,1,6.414,6.1v11.566a12.827,12.827,0,0,1-13.038,12.3H111.148A12.932,12.932,0,0,1,97.9,245.849V234.6a6.309,6.309,0,0,1,6.414-6.1Z" transform="translate(5.034 11.75)" fill="none" stroke="#ededeb" stroke-miterlimit="10" stroke-width="1.2"/><g transform="translate(102.934 240.25)" opacity="0.4"><g clip-path="url(#al)"><path d="M104.314,228.5H130.6a6.309,6.309,0,0,1,6.414,6.1v11.566a12.827,12.827,0,0,1-13.038,12.3H111.148A12.932,12.932,0,0,1,97.9,245.849V234.6a6.309,6.309,0,0,1,6.414-6.1" transform="translate(-97.9 -228.5)" fill="#ededeb"/></g></g><line x2="3.365" y2="1.577" transform="translate(99.57 249.292)" stroke-width="1.2" stroke="#ededeb" stroke-linecap="round" stroke-linejoin="round" fill="none"/><path d="M180.4,228.5H154.114a6.309,6.309,0,0,0-6.414,6.1v11.566a12.722,12.722,0,0,0,13.038,12.3h12.827a12.933,12.933,0,0,0,13.353-12.617V234.6a6.309,6.309,0,0,0-6.414-6.1Z" transform="translate(7.595 11.75)" fill="none" stroke="#ededeb" stroke-miterlimit="10" stroke-width="1.2"/><g transform="translate(155.4 240.25)" opacity="0.4"><g clip-path="url(#al)"><path d="M180.4,228.5H154.114a6.309,6.309,0,0,0-6.414,6.1v11.566a12.722,12.722,0,0,0,13.038,12.3h12.827a12.933,12.933,0,0,0,13.353-12.617V234.6a6.309,6.309,0,0,0-6.414-6.1h0" transform="translate(-147.805 -228.5)" fill="#ededeb"/></g></g><line x1="3.365" y2="1.577" transform="translate(194.513 249.292)" stroke-width="1.2" stroke="#ededeb" stroke-linecap="round" stroke-linejoin="round" fill="none"/><line x2="11.145" transform="translate(142.993 251.921)" stroke-width="2" stroke="#ededeb" stroke-linecap="round" stroke-linejoin="round" fill="none"/><path d="M401.168,317.076c-2.839-9.463-7.15-18.61-8.937-28.388s-1.051-19.451-2.1-29.124c-1.472-13.038-4.311-27.652-14.3-37.01a30.386,30.386,0,0,0-15.771-7.255c-2-.315-9.253-1.787-8.2-.631-1.577-1.262-2.944-3.154-4.521-4.311a38.692,38.692,0,0,0-13.458-5.993c-25.129-5.888-54.148,8.727-61.508,36.064-5.152,19.241,1.367,38.9-4.1,58.354-4.311,15.246-9.147,74.756-1.367,89.791.841,1.682,6.309,24.393,7.781,23.657,19.451-9.568,35.538,6.414,54.358,8.411,23.552,2.523,58.669-5.678,70.761-15.14,6.939-10.514,4.311-76.859,1.472-88.319" transform="translate(13.512 10.442)" fill="#212121"/><path d="M363.7,275.854s17.348-9.253,19.872,4-5.467,26.286-19.662,19.136-.21-23.026-.21-23.026" transform="translate(18.386 14.023)" fill="#edb6b3"/><path d="M372.7,295.272a1.472,1.472,0,1,0,1.472-1.472,1.472,1.472,0,0,0-1.472,1.472" transform="translate(19.165 15.108)" fill="#003aa5"/><g transform="translate(387.238 292.505)" opacity="0.7"><g clip-path="url(#an)"><path d="M368.307,286.3c1.157-4.311,2.523-6.729,4.311-7.57a7.044,7.044,0,0,1,8.937,3.154.848.848,0,1,1-1.472.841,6.414,6.414,0,0,0-4.311-2.944c2.523,2.629,5.257,7.36,1.682,11.776a.841.841,0,0,1-.631.315l-.526-.21a.841.841,0,0,1-.105-1.157h0c4-4.942-2.1-10.2-2.523-10.409l-.526.21c-.526.21-2,1.367-3.365,6.414a.841.841,0,0,1-.841.631h-.21a.841.841,0,0,1-.526-1.051Z" transform="translate(-368.307 -278.201)" fill="#edb6b3"/></g></g><path d="M290.994,275.854s-17.348-9.253-19.872,4,5.467,26.286,19.662,19.136.21-23.026.21-23.026" transform="translate(13.918 14.023)" fill="#edb6b3"/><path d="M280.944,295.272a1.472,1.472,0,1,1-1.472-1.472,1.472,1.472,0,0,1,1.472,1.472" transform="translate(14.295 15.108)" fill="#003aa5"/><g transform="translate(286.512 292.505)" opacity="0.7"><g clip-path="url(#an)"><path d="M285.749,286.3c-1.157-4.311-2.523-6.729-4.311-7.57a7.044,7.044,0,0,0-8.937,3.154.841.841,0,0,0,1.367.841,6.414,6.414,0,0,1,4.311-2.944c-2.523,2.629-5.257,7.36-1.682,11.776a.841.841,0,0,0,.631.315l.526-.21a.841.841,0,0,0,0-1.157h0c-4-4.942,2.1-10.2,2.523-10.409l.526.21c.526.21,2,1.367,3.365,6.414a.841.841,0,0,0,.841.631h.21a.841.841,0,0,0,.736-.946h0Z" transform="translate(-272.501 -278.201)" fill="#edb6b3"/></g></g><path d="M343.117,347.586l-3.68-2.629v-14.93a12.827,12.827,0,0,0-25.655,0V345.8l-3.68,1.787L308,371.243h42.057Z" transform="translate(15.838 16.311)" fill="#edb6b3"/></g><g transform="translate(329.621 334.562)" clip-path="url(#ap)"><path d="M387.4,229H272.379s-5.047,66.765,2.734,84.429c4.311,9.568,18.295,19.346,31.648,27.547a45.106,45.106,0,0,0,46.893-.105c13.038-8.2,26.811-17.874,31.017-27.442C392.451,295.765,387.4,229,387.4,229" transform="translate(-315.697 -322.787)" fill="#edb6b3"/></g><g clip-path="url(#a)"><path d="M376.106,261.1a23.026,23.026,0,0,0-23.026-22.4H305.555A23.552,23.552,0,0,0,282,261.516c-.526,18.084,1.787,41.741,5.467,50.784s12.407,16.928,23.131,24.078a33.435,33.435,0,0,0,37.431-.105c10.409-7.15,19.241-15.561,22.606-23.867s5.888-33.015,5.467-51.2" transform="translate(14.497 12.274)" fill="#edb6b3"/></g><g transform="translate(325.746 322.254)" clip-path="url(#ar)"><path d="M345.232,307.964c-.736-2.1-3.259-1.577-7.78.841a24.814,24.814,0,0,1-19.767.526c-4.626-2.1-6.939-2.313-7.781-.421s4.311,13.038,14.194,14.3a25.128,25.128,0,0,0,7.57-.21c9.778-1.787,14.3-12.617,13.563-15.035" transform="translate(-309.815 -306.486)" fill="#7f3322"/><path d="M314,306.446s.105,7.781,12.3,7.991,15.771-3.575,15.771-8.937Z" transform="translate(-309.6 -306.545)" fill="#fff"/><path d="M318.3,321.134s8.306-5.888,21.344-.421l-9.988,7.675Z" transform="translate(-309.379 -305.882)" fill="#edb6b3"/><path d="M318.3,321.134s8.306-5.888,21.344-.421l-9.988,7.675Z" transform="translate(-309.379 -305.882)" fill="#edb6b3"/></g><g clip-path="url(#a)"><path d="M318.468,289.831a4.627,4.627,0,0,1-.315,1.367,16.4,16.4,0,0,0-.315,1.682,5.782,5.782,0,0,0,0,2c0,.421.946.946,1.682,1.472l2.418,1.367a11.986,11.986,0,0,0,5.573,1.367l1.472-.21,1.472-.421,2.734-1.157,2.418-1.367.946-.736.21-.315a1.261,1.261,0,0,0,.105-.421,20.5,20.5,0,0,0-.105-3.785V289.2l.421,1.367a8.937,8.937,0,0,0,.315,1.682,10.829,10.829,0,0,1,.315,2.1,2.629,2.629,0,0,1,0,.736l-.421.736-1.051,1.051a15.771,15.771,0,0,1-2.523,1.577l-2.839,1.367-1.577.421-1.682.21a11.776,11.776,0,0,1-6.414-1.682,15.98,15.98,0,0,1-2.418-1.682l-1.051-.946-.421-.526a1.472,1.472,0,0,1-.315-.736,5.678,5.678,0,0,1,.315-2.313l.526-1.577.526-1.262" transform="translate(16.305 14.871)" fill="#edb6b3"/><path d="M292.1,302.91a.118.118,0,0,0,.105-.21H292.1c-.105,0-.105.21,0,.21" transform="translate(15.016 15.565)" fill="#3a2719"/><path d="M310.463,277.631a4.731,4.731,0,1,1-4.731-4.731,4.731,4.731,0,0,1,4.731,4.731" transform="translate(15.478 14.033)" fill="#153158"/><path d="M353.063,277.631a4.731,4.731,0,1,1-4.731-4.731,4.731,4.731,0,0,1,4.731,4.731" transform="translate(17.668 14.033)" fill="#153158"/><path d="M293.6,268.437a24.393,24.393,0,0,1,14.3-8.937" transform="translate(15.097 13.344)" fill="none" stroke="#153158" stroke-linecap="round" stroke-linejoin="round" stroke-width="2"/><path d="M360.6,268.437a24.6,24.6,0,0,0-14.3-8.937" transform="translate(17.807 13.344)" fill="none" stroke="#153158" stroke-linecap="round" stroke-linejoin="round" stroke-width="2"/><path d="M337.9,230.3a45.421,45.421,0,0,0,35.538,37.641l2.523-16.087s-14.4-21.87-38.061-21.554" transform="translate(17.375 11.842)" fill="#212121"/><path d="M346.757,223.044s8.937,21.975-14.825,35.643c-21.554,12.407-30.491-13.038-49.732,16.718a36.274,36.274,0,0,1,1.262-35.643c5.993-10.409,46.157-26.286,63.3-16.718" transform="translate(14.301 11.317)" fill="#212121"/><path d="M420.6,203.938s-3.154-12.617-1.577-13.248,2.944-.736,3.89,1.472,4.521,9.988,4.521,9.988l3.154-6.939s3.575-16.718,4.311-18.715a2.166,2.166,0,0,1,4.311.421h0c.105,1.367-2,19.451-2,19.451s7.045-20.4,8.517-21.344,4.1,0,3.68,3.259c-.21,1.051-5.257,20.713-5.257,20.713s6.309-12.091,8.1-13.668a2.1,2.1,0,0,1,3.785,1.472c.21,1.577-7.57,18.926-7.57,18.926a49.1,49.1,0,0,1,5.888-5.678,1.893,1.893,0,0,1,2.839,2.1c-.315,1.893-11.671,18.295-11.671,18.295l-3.785,14.089-18.4-6.414a79.587,79.587,0,0,0,1.577-9.463c-.421-.736-4.1-14.825-4.1-14.825" transform="translate(21.524 8.975)" fill="#edb6b3"/><path d="M420,222.952l1.367-5.152,24.5,5.888-2.208,5.467Z" transform="translate(21.597 11.2)" fill="#003aa5"/><path d="M420,222.952l1.367-5.152,24.5,5.888-2.208,5.467Z" transform="translate(21.597 11.2)" fill="none" stroke="#003aa5" stroke-miterlimit="10" stroke-width="0.25"/><path d="M424.767,342.713c12.827-31.437,23.972-114.184,23.972-114.184L421.823,221.8s-17.874,63.4-27.337,82.852c-4.521,9.358-22.711,37.01-30.386,42.057,5.152,21.344,15.351,41.636,27.022,59.616l-.21-1.893s22.4-34.066,33.751-61.718" transform="translate(18.722 11.405)" fill="#3d5afe"/><path d="M350.022,479.8l8.832-124.7c-35.012,20.187-58.354.526-58.354.526L310.488,479.8Z" transform="translate(15.452 18.26)" fill="#ededeb"/><path d="M308.668,484.677c-.315-6.414,13.038-17.664,13.038-24.814-.526-83.167-7.78-103.88-8.2-113.764l-26.811,8.306c-25.339,7.886-38.482,28.809-39.323,55.3l-3.47,70.55Z" transform="translate(12.542 17.797)" fill="#3d5afe"/><path d="M392.736,400.216a233.211,233.211,0,0,1-16.087-28.809,23.759,23.759,0,0,0-2.734-6.2,162.976,162.976,0,0,1-8.2-24.6,4.943,4.943,0,0,1-1.472.736c-11.566,3.049-22.5,5.047-22.5,5.047v.421c-.631,10.725-6.1,55.725-8.2,113.343-.21,7.045-.526,13.984-.841,20.4h67.5Z" transform="translate(17.108 17.514)" fill="#3d5afe"/><g transform="translate(288.089 422.566)" opacity="0.4"><g clip-path="url(#at)"><path d="M281.15,477.392,274,401.9v75.492Z" transform="translate(-274 -401.9)" fill="#259aff"/></g></g><path d="M231.814,397.3H423.909a10.514,10.514,0,0,1,10.514,10.514V521.578H221.3V407.814A10.514,10.514,0,0,1,231.814,397.3" transform="translate(11.379 20.43)" fill="#1a237e"/></g><g transform="translate(325.94 475.768)" clip-path="url(#au)"><rect width="26.601" height="26.622" transform="translate(0 0.105)" fill="#fdda42"/></g><g clip-path="url(#a)"><path d="M501.378,439.384,495.7,519.817l128.063-.421s-3.154-59.3-12.091-78.857-110.294-1.157-110.294-1.157" transform="translate(25.489 22.19)" fill="#1a237e"/><path d="M529.217,321.9h8.411l34.907,2.734L590.62,328l27.758,79.382,7.36,83.167s-87.163,8.727-131.638,0l1.472-131.953Z" transform="translate(25.407 16.552)" fill="#3d5afe"/><path d="M501.156,183.643c-1.367-.946-2.523-1.367-3.89.421l-6.519,8.1-1.262-7.15s.631-16.3.421-18.295a2.1,2.1,0,0,0-4.1-.526c-.421,1.262-2.734,18.505-2.734,18.505s-1.787-20.4-2.944-21.659-3.89-1.051-4.1,2.1c-.105,1.051,0,20.4,0,20.4s-2.944-12.722-4.311-14.51a2.1,2.1,0,0,0-3.785.421c-.631,1.367,2.523,19.241,2.523,19.241a47.318,47.318,0,0,0-4.1-6.624,1.787,1.787,0,0,0-3.154,1.262c-.21,1.787,6.414,19.662,6.414,19.662l.315,13.879,18.505-1.472a71.4,71.4,0,0,1,.736-9.042c.526-.631,7.36-12.827,7.36-12.827s5.993-10.935,4.626-11.776" transform="translate(23.818 8.346)" fill="#edb6b3"/><path d="M497.152,364.657l30.807-6.2,2.944-30.491c.841.315-5.993-5.152-9.883-9.778-10.724-12.827-19.872-18.715-21.134-24.814-3.154-14.93-7.465-89.371-7.465-89.371l-30.7,2.944s-2.1,73.179,3.365,105.668c2.629,15.666,26.5,40.8,32.068,52.045" transform="translate(23.722 10.49)" fill="#3d5afe"/><path d="M560.792,203.826c-.421-5.573-5.783-9.358-11.04-11.145-13.774-4.731-30.912.946-37.536,13.879-5.362,10.3-3.575,22.606-4.416,34.171" transform="translate(26.112 9.823)" fill="#003aa5"/><path d="M564.033,204.038c-1.051-18.82-27.337-19.977-40.375-13.774a31.753,31.753,0,0,0-16.823,18.505c-2.839,8.937-4.416,24.393-.105,32.8a1.367,1.367,0,0,0,1.893.421l.421-.421c3.049-4.626,2.313-9.253,2.734-14.72.526-8.517,2.1-17.243,8.411-23.552,9.358-9.147,32.068-12.2,38.167,2.1,1.157,2.839,5.783,1.367,5.678-1.577Z" transform="translate(25.92 9.61)" fill="#212121"/><path d="M538.39,289.1a63.292,63.292,0,0,0-8.411-11.566,36.8,36.8,0,0,1-9.042-15.771c-1.472-4.942-4.1-10.724-9.042-11.25a1.787,1.787,0,0,0-2.523-2.1c-8.411,3.785-7.991,12.933-9.673,20.818-2.1,10.83-11.355,17.979-13.774,28.493-.526,2.1-1.051,4.942.736,6.729s2.944.421,5.362.526c7.044.105,10.2,5.047,16.3,6.729,2.629.736,6.1.631,8.622,1.157s5.993,1.787,9.147,2.313c5.783.841,12.512-.105,15.561-5.888s-.105-14.3-3.259-20.187" transform="translate(24.961 12.764)" fill="#212121"/><path d="M506.018,253.56a182.936,182.936,0,0,1-.21-19.346,48.153,48.153,0,0,1,2.1-14.3A33.646,33.646,0,0,1,519.9,204.459c5.257-3.89,11.881-6.624,17.979-4.626A19.031,19.031,0,0,1,548.6,210.242a62.456,62.456,0,0,1,4.311,15.14" transform="translate(26.001 10.241)" fill="#003aa5"/><path d="M508.281,253.738c1.157-14.4-.526-32.7,10.935-43.213,8.306-7.57,19.662-10.2,25.655,1.577,2.523,4.942,2.523,10.409,5.467,14.93,1.367,2.1,5.257,2.1,5.783-.736,3.259-17.874-13.774-36.695-31.753-28.7-22.711,10.094-24.078,35.328-20.082,56.672.421,2.418,3.785,1.577,4-.526Z" transform="translate(25.841 10.063)" fill="#212121"/><path d="M622.193,316.418a2.523,2.523,0,0,0-.421-.946,37.959,37.959,0,0,0-5.783-6.729c-6.1-5.783-5.573-12.2-2.1-18.82s4-14.4,5.047-22.185c2.1-14.93,0-54.043-9.568-66.24-8.1-10.409-56.987-40.375-76.333-7.36-5.257,8.937,22.08,15.351,20.713,26.811-1.893,14.93,14.825,21.134,25.234,26.706,19.031,10.3,18.5,32.489,1.577,44.9-5.783,4.311-12.3,5.993-18.715,8.832-3.68,1.577-9.358,4.731-9.673,9.463a8.1,8.1,0,0,0,4,6.624c2.628,1.367,5.362.841,7.991,2.1s5.152,5.573,8.411,7.886c5.047,3.575,9.042,2.839,14.4,1.051,7.15-2.418,12.407,3.89,19.767,3.575.946,0,2-.736,2.944-.736s3.575,1.157,5.257,1.157,2.418.526,4.626-1.262c4.416-3.575,4.626-10.094,2.839-14.93" transform="translate(27.375 9.207)" fill="#212121"/><path d="M585.754,261.543s18.715-4.837,18.084,8.306-11.25,23.867-23.131,13.774,5.047-22.08,5.047-22.08" transform="translate(29.643 13.404)" fill="#edb6b3"/><g transform="translate(617.605 280.099)" opacity="0.7"><g clip-path="url(#aw)"><path d="M587.618,272.708c2.1-3.89,4-5.888,5.783-6.2a6.939,6.939,0,0,1,7.781,5.047.841.841,0,0,1-.526,1.051h0a.841.841,0,0,1-1.051-.526,6.414,6.414,0,0,0-3.365-3.785c1.787,3.049,3.259,8.2-1.051,11.671a.841.841,0,0,1-1.157-.105h0a.841.841,0,0,1,.105-1.157h0c4.942-3.785.21-10.2,0-10.514h-.526c-.526.105-2.1.841-4.731,5.467a.841.841,0,0,1-.946.421h-.21a.841.841,0,0,1-.421-1.051h.105Z" transform="translate(-587.408 -266.399)" fill="#edb6b3"/></g></g><path d="M518.407,245.832s-13.563-13.774-19.767-2.1-2.523,26.286,12.827,23.657,6.939-21.449,6.939-21.449" transform="translate(25.493 12.292)" fill="#edb6b3"/><g transform="translate(524.554 256.757)" opacity="0.7"><g clip-path="url(#ax)"><path d="M510.251,254.185c.105-4.311-.421-7.045-1.787-8.306a6.939,6.939,0,0,0-9.253.315.818.818,0,1,0,1.157,1.157h0a6.414,6.414,0,0,1,4.837-1.472c-3.154,1.682-7.044,5.362-5.047,10.514a.736.736,0,0,0,.526.421h.526a.841.841,0,0,0,.421-1.051c-2.313-5.783,5.047-8.937,5.362-9.042l.421.315c.421.421,1.472,1.893,1.262,7.045a.841.841,0,0,0,.526.841h.21a.841.841,0,0,0,.841-.736" transform="translate(-498.896 -244.197)" fill="#edb6b3"/></g></g><path d="M565.193,307.846a12.617,12.617,0,0,0-25.129-2.1L538.8,319.517c-.631,6.939,4.521,9.673,11.461,10.3a12.617,12.617,0,0,0,13.669-11.46h0Z" transform="translate(27.703 15.151)" fill="#edb6b3"/></g><g transform="translate(566.377 309.538)" clip-path="url(#ay)"><path d="M604.145,203.1l-56.461,1.682-56.356,1.682s-3.049,65.609,5.152,82.747c4.416,9.358,18.5,18.505,31.858,26.18a44.16,44.16,0,0,0,45.947-1.472c12.617-8.411,25.76-18.295,29.65-27.758,7.045-17.559.21-82.957.21-82.957" transform="translate(-541.141 -299.095)" fill="#edb6b3"/></g><g clip-path="url(#a)"><path d="M601.121,250.262a22.606,22.606,0,0,0-16.928-26.6l-22.816-5.467-22.4-5.362a23.026,23.026,0,0,0-27.652,16.4c-4.626,17.138-7.781,40.269-6.414,49.732s8.1,18.926,16.612,28.283a32.8,32.8,0,0,0,35.853,8.411c11.671-4.416,21.975-10.514,27.022-17.664s13.143-30.281,16.718-47.735" transform="translate(25.947 10.911)" fill="#edb6b3"/></g><g transform="translate(552.161 300.706)" clip-path="url(#ba)"><path d="M525.307,287.154c.841-2,2.839-1.157,6.309,1.472a18.085,18.085,0,0,0,16.087,2.313c4-1.472,5.888-1.472,6.414.315s-4.836,11.776-13.038,12.091a18.3,18.3,0,0,1-6.2-.841c-7.781-2.523-10.409-13.143-9.568-15.351" transform="translate(-525.157 -285.997)" fill="#7f3322"/><path d="M550.723,288.67s-.946,7.15-10.83,6.309-12.512-4.731-12.091-9.778Z" transform="translate(-525.023 -286.041)" fill="#fff"/><path d="M545.448,301.98s-6.309-6.414-17.348-2.313l7.465,8.1Z" transform="translate(-525.006 -285.367)" fill="#edb6b3"/><path d="M545.448,301.98s-6.309-6.414-17.348-2.313l7.465,8.1Z" transform="translate(-525.006 -285.367)" fill="#edb6b3"/></g><g clip-path="url(#a)"><path d="M531.919,267.4l-.631,1.262-.631,1.472a5.783,5.783,0,0,0-.526,1.893c0,.421.736,1.157,1.262,1.787l2,1.787a11.671,11.671,0,0,0,5.047,2.629h2.944l2.839-.421,2.629-.736,1.051-.526.315-.315.21-.421a21.761,21.761,0,0,0,.841-3.68l.21-1.367v3.049a12.293,12.293,0,0,1-.21,2.1l-.21.631-.526.631-1.156.736-2.734,1.157-3.049.631h-3.259a11.671,11.671,0,0,1-5.678-3.049,16.718,16.718,0,0,1-2-2.1l-.736-1.157-.315-.631a1.472,1.472,0,0,1-.105-.841,5.047,5.047,0,0,1,.841-2.1l.946-1.367.946-1.051" transform="translate(27.226 13.75)" fill="#edb6b3"/><path d="M511.706,267.91v-.21c-.105,0-.21.21,0,.21" transform="translate(26.306 13.765)" fill="#3a2719"/><path d="M528.956,251.886a4.731,4.731,0,1,1-3.365-5.678h0a4.626,4.626,0,0,1,3.365,5.678" transform="translate(26.72 12.652)" fill="#153158"/><path d="M569.445,262.584a4.626,4.626,0,1,1-3.365-5.678h0a4.731,4.731,0,0,1,3.365,5.678" transform="translate(28.814 13.203)" fill="#153158"/><path d="M517.6,237.815a24.183,24.183,0,0,1,15.982-4.311" transform="translate(26.616 12.002)" fill="none" stroke="#153158" stroke-linecap="round" stroke-linejoin="round" stroke-width="2"/><path d="M580.33,257.212A24.183,24.183,0,0,0,569.5,244.7" transform="translate(29.284 12.583)" fill="none" stroke="#153158" stroke-linecap="round" stroke-linejoin="round" stroke-width="2"/><path d="M605.729,254.557a2.629,2.629,0,1,0-2.629-2.629,2.629,2.629,0,0,0,2.629,2.629" transform="translate(31.012 12.819)" fill="#212121"/><path d="M594.3,214.247C586,204.574,565.5,194.586,552.774,201c-10.514,5.257-11.986,23.972-6.729,33.015,10.2,17.769,43.844,8.2,49.522,29.124.21.946,1.577.526,1.472-.421V262.3l3.154-3.154c1.051.841,3.049.736,3.259-.841,2-14.3.736-32.594-9.147-44.055" transform="translate(27.926 10.231)" fill="#212121"/><path d="M548.649,213.013A23.552,23.552,0,0,1,533.3,223.422c-3.68.631-7.57.421-11.04,1.787a21.975,21.975,0,0,0-12.827,12.827c-.421,1.157-2,2.418-2.523,1.262a1.472,1.472,0,0,1-.105-.631,52.044,52.044,0,0,1,4.416-23.236c3.364-7.781,10.514-14.4,19.031-14.93s17.243,6.834,16.3,15.246Z" transform="translate(26.058 10.309)" fill="#212121"/><path d="M546.932,211.294c-3.575,3.68-6.834,7.36-11.986,8.832s-9.253.946-13.668,2.523a23.658,23.658,0,0,0-7.886,4.837c-1.577,1.472-6.939,6.834-6.414,9.147l2.734,2.1.315-4.1a61.524,61.524,0,0,1,1.051-8.2,37.957,37.957,0,0,1,5.257-13.353c7.781-11.566,24.6-12.3,27.022,3.575.421,3.049,5.678,3.049,6.2,0,2.1-12.2-10.83-21.344-22.08-19.241-13.984,2.629-21.134,17.138-23.131,29.965-.526,3.47-2.418,11.671.946,14.4s5.047.21,6.729-2.1c3.049-4.311,4.416-8.2,9.673-10.724s9.988-1.577,14.825-2.944a23.341,23.341,0,0,0,14.615-11.46c1.262-2.629-2-5.467-4.311-3.259Z" transform="translate(25.882 10.136)" fill="#212121"/><path d="M534.372,313.2l17.454,2.629,17.138-.841,1.051,16.087-17.664-.526L532.9,328.235Z" transform="translate(27.402 16.105)" fill="#003aa5"/><path d="M534.372,313.2l17.454,2.629,17.138-.841,1.051,16.087-17.664-.526L532.9,328.235Z" transform="translate(27.402 16.105)" fill="#212121"/><path d="M563.2,420s37.851,22.5,55.83,29.335l-.946-10.409Z" transform="translate(28.96 21.597)" fill="#3d5afe"/><path d="M558.634,373c-1.367.841-2.313,1.577-1.367,3.68l4.416,9.463-6.939-2s-14.3-7.781-16.192-8.517a2.1,2.1,0,0,0-2.313,3.47c.946.946,15.351,10.724,15.351,10.724s-19.241-7.465-20.713-6.939-2.629,2.944,0,4.626c.946.526,18.295,8.937,18.295,8.937s-12.722-2.944-14.93-2.629a2.1,2.1,0,0,0-1.262,3.575c.946,1.157,18.4,6.2,18.4,6.2a47.732,47.732,0,0,0-7.781.736,1.787,1.787,0,0,0-.21,3.365c1.577.946,20.5,2.839,20.5,2.839l12.512,5.888,6.729-17.243a73.487,73.487,0,0,1-7.78-4.626c-.315-.841-8.306-12.2-8.306-12.2S560,372.161,558.529,373" transform="translate(27.218 19.178)" fill="#edb6b3"/><path d="M587.062,327.7s17.138,2.944,25.339,13.563c6.729,8.832,39.008,79.487,33.54,89.686-1.577,3.049-4.731,21.975-15.561,19.451-25.655-6.1-67.081-25.655-67.081-25.655l14.615-31.437,29.86,7.36L596.1,363.659Z" transform="translate(28.966 16.851)" fill="#3d5afe"/><path d="M577.1,390.1l29.86,6.1v1.262Z" transform="translate(29.675 20.059)" fill="#3d5afe"/></g><g transform="translate(457.315 446.668)" clip-path="url(#bc)"><rect width="25.97" height="28.504" transform="translate(0.053 0.711)" fill="url(#bd)"/></g><g transform="translate(482.077 469.774)" clip-path="url(#be)"><rect width="25.97" height="28.504" transform="translate(0 0.001)" fill="url(#bf)"/></g><g transform="translate(476.504 433.606)" clip-path="url(#bg)"><rect width="16.612" height="88.214" fill="url(#bh)"/></g><g transform="translate(457.315 433.606)"><g transform="translate(0 13.062)" clip-path="url(#bc)"><rect width="25.97" height="28.504" transform="translate(0.053 0.711)" fill="#fdda42"/></g><g transform="translate(24.761 36.168)" clip-path="url(#be)"><rect width="25.97" height="28.504" transform="translate(0 0.001)" fill="#fdda42"/></g><g transform="translate(19.189)" clip-path="url(#bg)"><rect width="16.612" height="88.214" fill="#fdda42"/></g></g><g clip-path="url(#a)"><path d="M480.446,515.179H444.487L442.7,482.9h39.639Z" transform="translate(22.764 24.831)" fill="#003aa5"/><rect width="46.263" height="11.135" transform="translate(462.1 502.579)" fill="#003aa5"/><rect width="46.263" height="11.135" transform="translate(462.1 502.579)" fill="#4baafc"/><rect width="46.263" height="11.135" transform="translate(462.1 502.579)" fill="#003aa5"/><rect width="46.263" height="11.135" transform="translate(462.1 502.579)" fill="#003aa5"/><rect width="694.148" height="12.091" transform="translate(17.138 540.01)" fill="#003aa5"/><g transform="translate(17.138 540.01)" opacity="0.5"><g clip-path="url(#bm)"><rect width="694.148" height="12.091" fill="#1a237e"/></g></g></g></g></g></svg>